<?xml version="1.0" encoding="UTF-8" standalone="no"?>
<svg
   width="564"
   height="229.6"
   version="1.1"
   id="svg2"
   sodipodi:docname="logo.svg"
   inkscape:version="1.3.2 (091e20ef0f, 2023-11-25, custom)"
   xmlns:inkscape="http://www.inkscape.org/namespaces/inkscape"
   xmlns:sodipodi="http://sodipodi.sourceforge.net/DTD/sodipodi-0.dtd"
   xmlns:xlink="http://www.w3.org/1999/xlink"
   xmlns="http://www.w3.org/2000/svg"
   xmlns:svg="http://www.w3.org/2000/svg"
   xmlns:serif="http://www.serif.com/">
  <sodipodi:namedview
     id="namedview2"
     pagecolor="#ffffff"
     bordercolor="#666666"
     borderopacity="1.0"
     inkscape:showpageshadow="2"
     inkscape:pageopacity="0.0"
     inkscape:pagecheckerboard="0"
     inkscape:deskcolor="#d1d1d1"
     inkscape:zoom="1.5746917"
     inkscape:cx="254.65302"
     inkscape:cy="145.74281"
     inkscape:window-width="1920"
     inkscape:window-height="1050"
     inkscape:window-x="0"
     inkscape:window-y="0"
     inkscape:window-maximized="1"
     inkscape:current-layer="svg2" />
  <path
     fill="#ffe6d6"
     d="M0 204.608h7.02v-63.181H0V118.4h64.445q18.112 0 27.659 7.441t9.547 24.149a33.241 33.241 0 0 1-3.791 16.287 20.3 20.3 0 0 1-10.811 9.547l.14 1.4q13.479 2.106 13.479 16.568v10.811h6.6v23.026H62.76V194.64q0-5.476-1.615-8.284a8.124 8.124 0 0 0-5.055-3.791 37.389 37.389 0 0 0-9.758-.983v23.026h9.267v23.026h-55.6Zm53.915-40.155q4.072 0 6.108-2.176t2.036-6.81v-5.055q0-4.633-2.036-6.81t-6.108-2.176h-7.582v23.026Zm150.512 40.155v23.026h-38.47v-10.952q-10.109 12.917-25.273 12.917-11.653 0-17.48-7.3t-5.827-20.078v-29.625h-6.178V149.57h38.471v46.052q0 4.633 2.036 6.81t6.108 2.176q4.072 0 6.108-2.176t2.036-6.81v-23.026h-7.582V149.57h39.875v55.038Zm38.049 24.992a104.737 104.737 0 0 1-34.118-5.616v-20.78h22.745v1.4q0 6.739 8.565 6.739 7.582 0 7.582-5.195a4.679 4.679 0 0 0-2.176-4.212q-2.176-1.4-7.652-2.387l-7.02-1.264q-22.043-3.931-22.043-24.992 0-12.215 9.267-18.954t24.992-6.739q17.55 0 29.625 5.9v19.516h-21.341v-1.4a5.1 5.1 0 0 0-1.9-4.282 8.9 8.9 0 0 0-5.546-1.474q-7.02 0-7.02 4.493a4.08 4.08 0 0 0 1.966 3.65 23.845 23.845 0 0 0 7.161 2.387l8 1.544q12.5 2.387 17.831 8.845t5.341 16.561q0 12.777-8.916 19.516t-25.343 6.743Zm73.431 0q-14.883 0-22.394-7.231t-7.512-24.36v-25.413h-6.178V149.57q5.335 0 8-2.738a10.3 10.3 0 0 0 2.667-7.512v-6.318h29.77v16.568h18.954v23.026H320.26v23.026q0 4.633 2.036 6.81t6.108 2.176a59.733 59.733 0 0 0 11.653-1.268v22.043a64.735 64.735 0 0 1-10.6 2.878 68.916 68.916 0 0 1-13.55 1.338Zm109.8-111.2h46.052v23.026h-7.02v86.208h-39.458l-41.138-63.322v40.3h6.739v23.026H344.83v-23.03h7.02v-63.181h-7.02V118.4h50.686l36.926 56.3v-33.276h-6.739Zm51.383 109.234v-23.026h7.02v-63.181h-7.02V118.4h59.25v23.026h-12.917v63.181h12.637v-12.916H564v35.943Z"
     id="path1" />
  <g
     id="Layer-1"
     serif:id="Layer 1"
     style="clip-rule:evenodd;fill-rule:evenodd;stroke-linejoin:round;stroke-miterlimit:1.41421"
     transform="matrix(0.25112247,0,0,0.25182696,125.32702,-10.26346)">
        <g
   transform="translate(597.344,637.02)"
   id="g2">
            <path
   d="m 0,-279.559 c -121.238,0 -231.39,14.576 -312.939,38.329 V -38.329 C -231.39,-14.575 -121.238,0 0,0 138.76,0 262.987,-19.092 346.431,-49.186 V -230.37 C 262.987,-260.465 138.76,-279.559 0,-279.559"
   style="fill:#a52b00;fill-rule:nonzero"
   id="path1-5" />

        </g>

        <g
   transform="translate(1068.75,575.642)"
   id="g3">
            <path
   d="m 0,-53.32 -14.211,-29.441 c 0.073,-1.118 0.131,-2.237 0.131,-3.36 0,-33.375 -34.706,-64.135 -93.097,-88.762 V 2.643 c 27.245,-11.492 49.348,-24.317 65.156,-38.125 -4.652,18.707 -20.564,56.553 -33.25,83.168 -20.85,38.066 -28.4,71.203 -27.432,72.844 0.617,1.033 7.73,-9.94 18.219,-27.721 C -60.074,58.028 -13.82,-8.373 -4.575,-25.287 5.897,-44.461 0,-53.32 0,-53.32"
   style="fill:#a52b00;fill-rule:nonzero"
   id="path2-3" />

        </g>

        <g
   transform="translate(149.064,591.421)"
   id="g4">
            <path
   d="m 0,-99.954 c 0,6.428 1.293,12.76 3.788,18.969 l -8.511,15.15 c 0,0 -6.818,8.846 5.188,27.508 10.59,16.455 63.635,80.867 91.632,114.598 12.026,17.293 20.179,27.945 20.893,26.916 1.124,-1.633 -7.476,-34.1 -31.359,-71.141 -11.144,-19.895 -24.454,-46.252 -32.442,-65.721 22.303,14.116 51.483,26.92 86.152,37.94 V -204.17 C 51.797,-177.622 0,-140.737 0,-99.954"
   style="fill:#a52b00;fill-rule:nonzero"
   id="path3" />

        </g>

        <g
   transform="translate(1151.27,281.813)"
   id="g5">
            <path
   d="m 0,240.343 -93.415,-68.811 c -0.88,-3.064 -1.756,-6.127 -2.662,-9.162 l 30.683,-44.451 c 3.13,-4.522 3.765,-10.398 1.731,-15.555 -2.037,-5.13 -6.491,-8.81 -11.763,-9.71 l -51.884,-8.805 c -2.008,-4.102 -4.116,-8.142 -6.23,-12.15 l 21.797,-49.903 c 2.243,-5.087 1.769,-10.995 -1.203,-15.608 -2.961,-4.636 -7.99,-7.344 -13.349,-7.133 l -52.656,1.913 c -2.727,-3.55 -5.496,-7.068 -8.321,-10.521 l 12.1,-53.49 c 1.225,-5.433 -0.322,-11.118 -4.103,-15.064 -3.762,-3.932 -9.229,-5.559 -14.426,-4.283 l -51.289,12.608 c -3.321,-2.935 -6.698,-5.833 -10.114,-8.673 l 1.848,-54.914 c 0.198,-5.559 -2.393,-10.842 -6.844,-13.925 -4.446,-3.104 -10.093,-3.573 -14.956,-1.266 l -47.847,22.747 c -3.854,-2.21 -7.728,-4.4 -11.644,-6.517 l -8.455,-54.115 c -0.857,-5.483 -4.385,-10.139 -9.326,-12.266 -4.923,-2.137 -10.568,-1.447 -14.891,1.808 l -42.659,32.007 c -4.2,-1.395 -8.419,-2.732 -12.692,-4.011 l -18.386,-51.316 c -1.87,-5.229 -6.181,-9.071 -11.438,-10.151 -5.239,-1.072 -10.63,0.742 -14.263,4.802 l -35.906,40.171 c -4.343,-0.5 -8.686,-0.956 -13.043,-1.331 l -27.724,-46.713 c -2.81,-4.732 -7.77,-7.612 -13.116,-7.612 -5.334,0 -10.304,2.88 -13.09,7.612 l -27.733,46.713 c -4.358,0.375 -8.722,0.831 -13.056,1.331 l -35.91,-40.171 c -3.636,-4.06 -9.047,-5.874 -14.268,-4.802 -5.255,1.092 -9.573,4.922 -11.433,10.151 l -18.402,51.316 c -4.26,1.279 -8.481,2.627 -12.691,4.011 l -42.644,-32.007 c -4.336,-3.266 -9.98,-3.955 -14.916,-1.808 -4.919,2.127 -8.461,6.783 -9.313,12.266 l -8.461,54.115 c -3.914,2.117 -7.789,4.294 -11.653,6.517 l -47.842,-22.747 c -4.858,-2.316 -10.529,-1.838 -14.954,1.266 -4.445,3.083 -7.042,8.366 -6.84,13.925 l 1.835,54.914 c -3.405,2.84 -6.774,5.738 -10.112,8.673 l -51.279,-12.608 c -5.21,-1.265 -10.67,0.351 -14.441,4.283 -3.795,3.946 -5.331,9.631 -4.113,15.064 l 12.079,53.49 c -2.802,3.467 -5.575,6.971 -8.293,10.521 l -52.655,-1.913 c -5.314,-0.157 -10.386,2.497 -13.356,7.133 -2.973,4.613 -3.423,10.521 -1.213,15.608 l 21.816,49.903 c -2.119,4.008 -4.224,8.048 -6.249,12.15 l -51.887,8.805 c -5.27,0.888 -9.71,4.566 -11.76,9.71 -2.04,5.157 -1.37,11.033 1.73,15.555 l 30.7,44.451 c -0.24,0.784 -0.46,1.577 -0.7,2.364 l -86.77,92.17 c 0,0 -13.29,10.423 6.07,34.916 17.07,21.605 104.724,107.252 151.018,152.123 19.554,22.779 32.948,36.886 34.349,35.666 2.208,-1.94 -9.387,-43.385 -47.902,-92.012 -29.685,-43.629 -68.215,-110.733 -59.175,-118.467 0,0 10.27,-13.045 30.893,-22.435 0.753,0.603 -0.781,-0.598 0,0 0,0 435.152,200.732 838.797,3.396 46.108,-8.273 74.023,16.43 74.023,16.43 9.628,5.58 -15.301,74.578 -35.798,120.254 -27.881,51.863 -31.97,92.332 -29.604,93.736 1.491,0.889 11.634,-14.545 26.104,-39.109 C -79.843,391.654 -12.354,296.816 0,273.782 14.006,247.663 0,240.343 0,240.343"
   style="fill:#f74c00;fill-rule:nonzero"
   id="path4" />

        </g>

        <g
   transform="translate(450.328,483.629)"
   id="g6">
            <path
   d="m 0,167.33 c -1.664,-1.42 -2.536,-2.262 -2.536,-2.262 L 140.006,153.391 C 23.733,0 -69.418,122.193 -79.333,135.855 v 31.475 z"
   style="fill-rule:nonzero"
   id="path5" />

        </g>

        <g
   transform="translate(747.12,477.333)"
   id="g7">
            <path
   d="m 0,171.974 c 1.663,-1.42 2.536,-2.264 2.536,-2.264 L -134.448,159.687 C -18.12,0 69.421,126.835 79.335,140.497 v 31.477 z"
   style="fill-rule:nonzero"
   id="path6" />

        </g>

        <g
   transform="translate(966.094,811.034)"
   id="g8">
            <path
   d="m 0,-314.014 c 0,0 -15.576,62.041 -112.453,127.238 l -27.166,6.367 c 0,0 -87.881,-160.259 -212.383,20.334 0,0 38.802,-22.591 142.822,4.92 0,0 -47.85,73.239 -144.242,70.989 0,0 92.373,110.82 232.94,-49.252 0,0 148.595,-57.463 160.646,-180.596 z"
   style="fill:#f74c00;fill-rule:nonzero"
   id="path7" />

        </g>

        <g
   transform="translate(677.392,509.61)"
   id="g9">
            <path
   d="m 0,-92.063 c 0,0 43.486,-47.615 86.974,0 0,0 34.17,63.492 0,95.234 0,0 -55.912,44.444 -86.974,0 0,0 -37.275,-34.921 0,-95.234"
   style="fill-rule:nonzero"
   id="path8" />

        </g>

        <g
   transform="translate(727.738,435.209)"
   id="g10">
            <path
   d="m 0,0.002 c 0,18.541 -10.93,33.572 -24.408,33.572 -13.477,0 -24.406,-15.031 -24.406,-33.572 0,-18.541 10.929,-33.574 24.406,-33.574 C -10.93,-33.572 0,-18.539 0,0.002"
   style="fill:#ffffff;fill-rule:nonzero"
   id="path9" />

        </g>

        <g
   transform="translate(483.3,502.984)"
   id="g11">
            <path
   d="m 0,-98.439 c 0,0 74.596,-33.028 94.956,40.691 0,0 21.327,85.926 -61.259,90.776 0,0 -105.31,-20.283 -33.697,-131.467"
   style="fill-rule:nonzero"
   id="path10" />

        </g>

        <g
   transform="translate(520.766,436.428)"
   id="g12">
            <path
   d="m 0,0 c 0,19.119 -11.27,34.627 -25.173,34.627 -13.898,0 -25.171,-15.508 -25.171,-34.627 0,-19.124 11.273,-34.627 25.171,-34.627 C -11.27,-34.627 0,-19.124 0,0"
   style="fill:#ffffff;fill-rule:nonzero"
   id="path11" />

        </g>

        <g
   transform="translate(441.397,687.635)"
   id="g13">
            <path
   d="M 0,-25.102 C 91.833,-36.676 144.904,-37.754 144.904,-37.754 22.037,-199.838 -77.661,-53.098 -77.661,-53.098 c -24.982,-8.932 -50.453,-43.613 -69.477,-75.59 l -76.237,-22.58 C -135.502,-2.127 -70.08,0.146 -70.08,0.146 66.134,174.736 130.663,34.441 130.663,34.441 54.195,25.759 0,-25.102 0,-25.102"
   style="fill:#f74c00;fill-rule:nonzero"
   id="path12" />

        </g>

    </g>
</svg>
